HIERARCHY
ROOT Hips
{
    OFFSET 0.000000 0.000000 0.000000
    CHANNELS 6 Xposition Yposition Zposition Zrotation Xrotation Yrotation
    JOINT Spine
    {
        OFFSET -0.000000 7.246840 0.000000
        CHANNELS 3 Zrotation Xrotation Yrotation
        JOINT Spine1
        {
            OFFSET -0.000000 20.289354 0.000000
            CHANNELS 3 Zrotation Xrotation Yrotation
            JOINT Neck
            {
                OFFSET -0.000000 20.206032 1.836912
                CHANNELS 3 Zrotation Xrotation Yrotation
                JOINT Head
                {
                    OFFSET -0.000000 12.372654 -1.767522
                    CHANNELS 3 Zrotation Xrotation Yrotation
                    End Site
                    {
                        OFFSET -0.000000 22.094025 0.000000
                    }
                }
            }
            JOINT LeftShoulder
            {
                OFFSET 3.465871 17.201674 -0.568930
                CHANNELS 3 Zrotation Xrotation Yrotation
                JOINT LeftArm
                {
                    OFFSET 14.070313 0.000000 0.000000
                    CHANNELS 3 Zrotation Xrotation Yrotation
                    JOINT LeftForeArm
                    {
                        OFFSET 26.549477 0.000000 0.000000
                        CHANNELS 3 Zrotation Xrotation Yrotation
                        JOINT LeftHand
                        {
                            OFFSET 18.880413 0.000000 0.000000
                            CHANNELS 3 Zrotation Xrotation Yrotation
                            End Site
                            {
                                OFFSET 13.256415 0.000000 0.000000
                            }
                        }
                    }
                }
            }
            JOINT RightShoulder
            {
                OFFSET -3.526370 17.201674 -0.568930
                CHANNELS 3 Zrotation Xrotation Yrotation
                JOINT RightArm
                {
                    OFFSET -14.070313 0.000000 0.000000
                    CHANNELS 3 Zrotation Xrotation Yrotation
                    JOINT RightForeArm
                    {
                        OFFSET -26.549477 0.000000 0.000000
                        CHANNELS 3 Zrotation Xrotation Yrotation
                        JOINT RightHand
                        {
                            OFFSET -18.880413 0.000000 0.000000
                            CHANNELS 3 Zrotation Xrotation Yrotation
                            End Site
                            {
                                OFFSET -13.256415 0.000000 0.000000
                            }
                        }
                    }
                }
            }
        }
    }
    JOINT LeftUpLeg
    {
        OFFSET 8.837609 0.000000 0.000000
        CHANNELS 3 Zrotation Xrotation Yrotation
        JOINT LeftLeg
        {
            OFFSET -0.000000 -41.345005 0.000000
            CHANNELS 3 Zrotation Xrotation Yrotation
            JOINT LeftFoot
            {
                OFFSET -0.000000 -35.500874 0.000000
                CHANNELS 3 Zrotation Xrotation Yrotation
                JOINT LeftToeBase
                {
                    OFFSET -0.000000 -5.744446 13.256415
                    CHANNELS 3 Zrotation Xrotation Yrotation
                    End Site
                    {
                        OFFSET -0.000000 0.000000 3.535044
                    }
                }
            }
        }
    }
    JOINT RightUpLeg
    {
        OFFSET -8.837609 0.000000 0.000000
        CHANNELS 3 Zrotation Xrotation Yrotation
        JOINT RightLeg
        {
            OFFSET -0.000000 -41.345005 0.000000
            CHANNELS 3 Zrotation Xrotation Yrotation
            JOINT RightFoot
            {
                OFFSET -0.000000 -35.500874 0.000000
                CHANNELS 3 Zrotation Xrotation Yrotation
                JOINT RightToeBase
                {
                    OFFSET -0.000000 -5.744446 13.256415
                    CHANNELS 3 Zrotation Xrotation Yrotation
                    End Site
                    {
                        OFFSET -0.000000 0.000000 3.535044
                    }
                }
            }
        }
    }
}
MOTION
Frames:    13
Frame Time:    0.010000
0.207521    82.082382    -15.553819    3.548548    2.756536    0.550346    -3.622640    -14.465656    -0.728612    -2.453846    4.060970    -0.181763    2.899738    32.293243    -1.684318    2.355153    -12.998388    -0.695384    18.814919    1.889158    6.322450    -33.877201    4.903734    -8.081036    7.809299    -9.516558    -12.741104    -32.107647    -9.720055    3.750391    -16.526110    2.320404    10.915883    17.750929    5.013836    5.662384    -5.687166    -7.592946    8.937722    11.884424    -5.819345    12.829701    -0.817829    6.944919    -0.148624    -1.807960    -9.058789    -6.192761    3.573817    0.650954    0.234070    -1.444145    -1.117991    2.035309    -9.772810    6.280948    -1.164193    7.949089    -10.304524    2.591034    -0.367748    -1.551147    -9.134878    -0.779566    1.196822    1.380254    
0.210122    82.081589    -15.548341    3.548883    2.761393    0.540135    -3.626857    -14.473362    -0.725729    -2.457345    4.064261    -0.177970    2.931892    32.289192    -1.697375    2.326487    -13.019896    -0.710772    18.823914    1.868407    6.325181    -33.878281    4.908879    -8.073644    7.837065    -9.495105    -12.743732    -32.112656    -9.704159    3.780765    -16.518808    2.335140    10.903851    17.736412    4.986888    5.695213    -5.685078    -7.617578    8.938540    11.898104    -5.844646    12.810662    -0.817925    6.943949    -0.170089    -1.795900    -9.059453    -6.213882    3.566794    0.653604    0.291329    -1.453252    -1.120947    2.048179    -9.776494    6.281368    -1.159467    7.953620    -10.313137    2.585181    -0.363874    -1.548321    -9.113626    -0.775358    1.201455    1.372738    
0.211576    82.081139    -15.542370    3.548267    2.764476    0.522897    -3.633348    -14.479865    -0.720602    -2.454634    4.067388    -0.171854    2.915813    32.271729    -1.696865    2.364990    -13.015211    -0.703684    18.839851    1.838134    6.319348    -33.885597    4.939783    -8.043238    7.843661    -9.484770    -12.745757    -32.043930    -9.687051    3.768380    -16.519917    2.329740    10.913899    17.745962    4.949236    5.693707    -5.666120    -7.552624    8.956263    11.863539    -5.790987    12.743464    -0.815946    6.944752    -0.157187    -1.813828    -9.058025    -6.222586    3.569274    0.651646    0.298269    -1.455952    -1.116777    2.051931    -9.775769    6.278450    -1.155605    7.946267    -10.313789    2.589336    -0.361981    -1.546682    -9.110198    -0.769107    1.194658    1.361768    
0.216098    82.081833    -15.536101    3.547560    2.768866    0.501626    -3.631378    -14.492730    -0.712509    -2.452610    4.073418    -0.163308    2.885270    32.273941    -1.693745    2.411477    -13.035623    -0.693118    18.839142    1.831163    6.307481    -33.888279    4.927232    -8.012910    7.827269    -9.492376    -12.763928    -31.920132    -9.684323    3.745160    -16.515417    2.343801    10.907006    17.725372    4.951353    5.722731    -5.679261    -7.692417    8.932053    11.843994    -5.930407    12.774625    -0.821241    6.945850    -0.165380    -1.806970    -9.052030    -6.198223    3.588874    0.634102    0.302438    -1.445918    -1.102342    2.037613    -9.779502    6.273279    -1.152061    7.952855    -10.314223    2.576416    -0.376589    -1.535478    -9.078639    -0.766575    1.190785    1.357341    
0.219025    82.082222    -15.529929    3.546069    2.770659    0.488773    -3.636551    -14.500666    -0.709884    -2.442039    4.081731    -0.160155    2.899850    32.263542    -1.693477    2.380893    -13.049294    -0.698263    18.840139    1.857630    6.324989    -33.901371    4.896983    -8.036107    7.819244    -9.509267    -12.767124    -31.813059    -9.686216    3.702746    -16.520931    2.328815    10.923036    17.727766    4.924183    5.705395    -5.654974    -7.605758    8.965632    11.814286    -5.852891    12.717870    -0.823392    6.949962    -0.170578    -1.806428    -9.055570    -6.189043    3.619362    0.639206    0.302038    -1.461376    -1.116605    2.059573    -9.781697    6.274496    -1.152104    7.955324    -10.316378    2.598603    -0.352297    -1.541332    -9.094529    -0.775518    1.200884    1.373029    
0.223355    82.082191    -15.525670    3.544457    2.771799    0.474553    -3.639199    -14.505509    -0.705175    -2.434243    4.091458    -0.155216    2.905487    32.242371    -1.697855    2.375732    -13.047064    -0.703958    18.839540    1.823624    6.308688    -33.897614    4.900533    -7.989293    7.797713    -9.505044    -12.771715    -31.746408    -9.673759    3.674239    -16.516632    2.318203    10.910531    17.709885    4.958694    5.724953    -5.685449    -7.726077    8.932643    11.841574    -5.962097    12.792193    -0.824815    6.947132    -0.168957    -1.810208    -9.042974    -6.162761    3.616510    0.623797    0.287229    -1.453686    -1.122965    2.048816    -9.783202    6.269646    -1.160317    7.956561    -10.309114    2.606233    -0.356546    -1.545549    -9.079939    -0.770441    1.208522    1.363931    
0.226232    82.082382    -15.520472    3.543664    2.771299    0.461108    -3.636417    -14.506447    -0.702207    -2.442234    4.091019    -0.152011    2.936734    32.237518    -1.694493    2.337158    -13.059425    -0.705187    18.851257    1.846893    6.325116    -33.893631    4.889293    -8.010959    7.784142    -9.495022    -12.765242    -31.731192    -9.662992    3.666577    -16.499138    2.426192    10.915655    17.648794    4.866065    5.757621    -5.665688    -7.727218    8.946859    11.856811    -5.962785    12.788277    -0.825073    6.952093    -0.174504    -1.804213    -9.042005    -6.196823    3.599893    0.625293    0.344427    -1.461375    -1.124733    2.059675    -9.786511    6.268716    -1.151719    7.959979    -10.308379    2.578793    -0.357224    -1.536230    -9.052507    -0.780446    1.217348    1.381514    
0.230250    82.082214    -15.514937    3.538723    2.768485    0.448894    -3.628505    -14.506974    -0.697507    -2.446090    4.098383    -0.147984    2.930273    32.221134    -1.691572    2.351393    -13.060360    -0.699998    18.853001    1.840214    6.323905    -33.874584    4.921019    -7.998737    7.791873    -9.509450    -12.762656    -31.808268    -9.676781    3.657331    -16.510675    2.396087    10.926975    17.671341    4.916518    5.731557    -5.667719    -7.656858    8.974950    11.861321    -5.893145    12.759128    -0.828465    6.954181    -0.147929    -1.793046    -9.032809    -6.214766    3.620497    0.619844    0.348048    -1.460261    -1.099915    2.057793    -9.783785    6.272260    -1.145591    7.958915    -10.310854    2.567501    -0.339117    -1.536426    -9.034280    -0.777419    1.196665    1.376456    
0.235091    82.082817    -15.510201    3.537612    2.768795    0.432851    -3.628701    -14.507294    -0.690799    -2.443147    4.093879    -0.141652    2.940031    32.224121    -1.694797    2.351145    -13.069448    -0.701652    18.859098    1.850615    6.332931    -33.868244    4.936604    -8.015894    7.811156    -9.533032    -12.753912    -31.909634    -9.705855    3.670085    -16.515322    2.397869    10.926401    17.677267    4.930685    5.727500    -5.699619    -7.765609    8.970013    11.887617    -5.990622    12.820909    -0.826983    6.961287    -0.163267    -1.803586    -9.035975    -6.168280    3.614255    0.614738    0.324734    -1.460982    -1.120338    2.059065    -9.789913    6.269884    -1.143703    7.958370    -10.305081    2.604128    -0.347145    -1.541090    -9.058037    -0.770905    1.217229    1.364628    
0.239170    82.082512    -15.505308    3.535444    2.768606    0.425284    -3.617872    -14.508724    -0.687101    -2.455557    4.091703    -0.138928    2.950723    32.222885    -1.694660    2.343797    -13.070555    -0.701683    18.864105    1.841978    6.333648    -33.847164    4.977336    -8.004120    7.828425    -9.550161    -12.758297    -32.021152    -9.729481    3.687485    -16.516188    2.405992    10.926663    17.681988    4.902483    5.727483    -5.699058    -7.770549    8.979667    11.886128    -5.993845    12.834989    -0.830950    6.963394    -0.148782    -1.798239    -9.033875    -6.184109    3.601605    0.613135    0.328488    -1.466986    -1.120471    2.067528    -9.787933    6.271658    -1.160333    7.962012    -10.302629    2.593893    -0.326724    -1.544218    -9.024863    -0.776349    1.210603    1.374360    
0.242111    82.082596    -15.501820    3.533706    2.770739    0.420275    -3.627332    -14.509785    -0.687908    -2.441556    4.089668    -0.139117    2.935411    32.217804    -1.688791    2.371567    -13.071520    -0.691105    18.868362    1.867573    6.353021    -33.854195    4.956610    -8.039591    7.851758    -9.572800    -12.737423    -32.100075    -9.748247    3.668406    -16.518475    2.420308    10.905027    17.675129    4.862464    5.761991    -5.697084    -7.765471    8.970051    11.887818    -5.988741    12.839272    -0.828033    6.960914    -0.155590    -1.800493    -9.026454    -6.185529    3.608936    0.602235    0.339217    -1.466872    -1.115090    2.067299    -9.786147    6.270392    -1.160839    7.957823    -10.304708    2.592306    -0.336321    -1.537510    -9.019932    -0.766943    1.205834    1.357778    
0.247410    82.082291    -15.497002    3.533479    2.770474    0.411267    -3.622986    -14.511375    -0.685884    -2.436336    4.085204    -0.137539    2.938479    32.243053    -1.699546    2.354075    -13.106210    -0.704736    18.852539    1.878898    6.360607    -33.839622    4.926189    -8.041144    7.831800    -9.622009    -12.754312    -32.058327    -9.801657    3.684695    -16.523773    2.428662    10.908433    17.659187    4.849248    5.766541    -5.684260    -7.761282    8.970501    11.900826    -5.987182    12.809221    -0.832139    6.966025    -0.162338    -1.798996    -9.023903    -6.196378    3.631108    0.602286    0.375094    -1.458618    -1.103597    2.055523    -9.790776    6.274593    -1.156511    7.955547    -10.308648    2.608309    -0.328264    -1.540023    -9.038253    -0.773943    1.225448    1.369886    
0.251269    82.082138    -15.492564    3.533875    2.771426    0.407529    -3.621863    -14.513171    -0.685144    -2.441930    4.080414    -0.137101    2.939903    32.228832    -1.698324    2.364823    -13.080916    -0.701462    18.864836    1.889569    6.362264    -33.849957    4.869326    -8.039859    7.813455    -9.641357    -12.750873    -32.001804    -9.815308    3.663456    -16.514093    2.432434    10.896291    17.639172    4.855545    5.785697    -5.687922    -7.770510    8.956119    11.943274    -5.992446    12.805810    -0.830681    6.970775    -0.158981    -1.810093    -9.030275    -6.190309    3.605518    0.612389    0.375940    -1.466262    -1.136787    2.066714    -9.792675    6.275459    -1.156962    7.956950    -10.311420    2.571204    -0.323157    -1.535056    -8.989571    -0.772285    1.223546    1.366980    
